<?xml version="1.0" standalone="no"?>
<!DOCTYPE svg PUBLIC "-//W3C//DTD SVG 20010904//EN"
 "http://www.w3.org/TR/2001/REC-SVG-20010904/DTD/svg10.dtd">
<svg version="1.0" xmlns="http://www.w3.org/2000/svg"
 width="1015.000000pt" height="970.000000pt" viewBox="0 0 1015.000000 970.000000"
 preserveAspectRatio="xMidYMid meet">
<metadata>
Created by potrace 1.16, written by Peter Selinger 2001-2019
</metadata>
<g transform="translate(0.000000,970.000000) scale(0.100000,-0.100000)"
fill="#c0392b" stroke="none">
<path d="M40 4850 l0 -4810 1485 0 1485 0 0 1355 0 1355 1228 0 1227 0 719
-1351 c396 -743 724 -1353 730 -1355 6 -2 725 -3 1597 -2 l1585 3 -833 1600
c-458 880 -833 1602 -833 1605 0 3 26 21 57 40 100 61 284 203 408 317 198
181 358 370 523 618 302 452 485 962 559 1555 25 202 25 775 0 998 -72 632
-241 1139 -526 1569 -446 676 -1139 1112 -2035 1281 l-141 26 -3617 3 -3618 3
0 -4810z m6129 2180 c282 -68 510 -293 582 -575 28 -110 28 -280 0 -389 -69
-265 -256 -466 -522 -558 l-94 -33 -1562 -3 -1563 -2 0 790 0 790 1538 0
c1505 0 1539 -1 1621 -20z"/>
</g>
</svg>
